<svg width="964" height="400" viewBox="0 0 964 400" fill="none" xmlns="http://www.w3.org/2000/svg">
<rect x="4.51123" y="145.758" width="930.466" height="240.164" rx="34" transform="rotate(-8 4.51123 145.758)" fill="#EF8435"/>
<path d="M549.831 157.539L548.67 150.207L580.241 145.207L581.402 152.539L570.076 154.333L574.831 184.354L565.931 185.763L561.176 155.743L549.831 157.539ZM596.954 164.472L599.485 180.449L590.566 181.861L584.65 144.509L593.277 143.142L595.571 157.624L595.881 157.575C596.24 155.748 597.059 154.235 598.34 153.035C599.633 151.833 601.325 151.066 603.416 150.735C605.386 150.423 607.17 150.589 608.768 151.233C610.363 151.866 611.688 152.909 612.741 154.362C613.806 155.814 614.5 157.598 614.822 159.716L617.651 177.572L608.732 178.984L606.181 162.879C605.947 161.321 605.365 160.167 604.436 159.417C603.507 158.666 602.325 158.405 600.89 158.632C599.954 158.78 599.16 159.118 598.508 159.645C597.867 160.158 597.405 160.823 597.123 161.641C596.853 162.456 596.797 163.4 596.954 164.472ZM623.218 176.69L618.781 148.675L627.699 147.263L632.137 175.277L623.218 176.69ZM622.732 144.703C621.48 144.901 620.338 144.658 619.308 143.974C618.275 143.278 617.665 142.34 617.478 141.16C617.293 139.993 617.585 138.925 618.354 137.955C619.121 136.974 620.131 136.384 621.383 136.185C622.648 135.985 623.79 136.234 624.811 136.933C625.841 137.617 626.449 138.543 626.634 139.71C626.821 140.889 626.531 141.97 625.764 142.951C625.007 143.919 623.997 144.503 622.732 144.703ZM659.189 151.044L651.034 152.56C650.857 151.99 650.544 151.509 650.096 151.119C649.646 150.717 649.097 150.436 648.448 150.277C647.81 150.104 647.096 150.08 646.305 150.205C645.272 150.369 644.423 150.715 643.759 151.244C643.107 151.771 642.843 152.386 642.967 153.09C643.041 153.639 643.335 154.078 643.849 154.408C644.374 154.736 645.246 154.929 646.464 154.985L652.025 155.151C654.906 155.243 657.126 155.802 658.684 156.826C660.254 157.849 661.207 159.38 661.543 161.421C661.835 163.344 661.528 165.107 660.623 166.708C659.73 168.308 658.373 169.657 656.553 170.756C654.73 171.842 652.567 172.584 650.062 172.98C646.062 173.614 642.777 173.293 640.206 172.017C637.646 170.728 635.983 168.723 635.215 166.002L643.99 164.388C644.346 165.379 644.974 166.077 645.873 166.483C646.773 166.889 647.855 166.992 649.119 166.792C650.262 166.611 651.159 166.25 651.809 165.711C652.459 165.172 652.734 164.549 652.634 163.842C652.522 163.211 652.163 162.751 651.556 162.461C650.947 162.158 650.042 161.99 648.84 161.956L643.804 161.8C640.915 161.734 638.674 161.123 637.083 159.967C635.489 158.798 634.529 157.143 634.202 155.001C633.893 153.131 634.139 151.453 634.938 149.968C635.735 148.47 637.008 147.222 638.757 146.222C640.506 145.222 642.644 144.522 645.174 144.121C648.967 143.52 652.084 143.843 654.525 145.089C656.964 146.323 658.519 148.308 659.189 151.044ZM678.39 167.951L673.952 139.937L682.871 138.524L687.308 166.539L678.39 167.951ZM677.904 135.965C676.651 136.163 675.51 135.92 674.479 135.236C673.447 134.539 672.837 133.601 672.65 132.422C672.465 131.255 672.757 130.186 673.526 129.217C674.293 128.235 675.302 127.646 676.555 127.447C677.819 127.247 678.962 127.496 679.982 128.194C681.013 128.879 681.621 129.804 681.806 130.972C681.993 132.151 681.703 133.232 680.936 134.213C680.179 135.18 679.168 135.764 677.904 135.965ZM714.361 142.305L706.206 143.821C706.029 143.251 705.716 142.771 705.268 142.381C704.817 141.978 704.268 141.698 703.62 141.539C702.982 141.366 702.267 141.342 701.477 141.467C700.444 141.631 699.595 141.977 698.931 142.506C698.279 143.033 698.015 143.648 698.139 144.351C698.213 144.9 698.507 145.34 699.02 145.67C699.546 145.998 700.418 146.19 701.636 146.247L707.196 146.413C710.077 146.505 712.297 147.063 713.856 148.088C715.426 149.11 716.379 150.642 716.715 152.683C717.007 154.606 716.7 156.368 715.795 157.97C714.901 159.57 713.545 160.919 711.724 162.017C709.902 163.104 707.739 163.845 705.234 164.242C701.233 164.875 697.948 164.555 695.378 163.279C692.818 161.989 691.154 159.984 690.387 157.264L699.162 155.65C699.518 156.64 700.146 157.339 701.045 157.745C701.945 158.151 703.026 158.254 704.291 158.053C705.434 157.872 706.33 157.512 706.98 156.973C707.63 156.434 707.906 155.811 707.806 155.103C707.694 154.473 707.334 154.013 706.727 153.723C706.119 153.42 705.213 153.252 704.011 153.218L698.976 153.062C696.086 152.996 693.846 152.385 692.254 151.229C690.661 150.06 689.701 148.405 689.374 146.263C689.065 144.392 689.31 142.715 690.11 141.229C690.907 139.732 692.18 138.483 693.929 137.484C695.677 136.484 697.816 135.783 700.345 135.383C704.139 134.782 707.256 135.105 709.697 136.351C712.136 137.585 713.69 139.57 714.361 142.305ZM741.534 158.436C739.746 158.72 738.112 158.673 736.632 158.297C735.161 157.906 733.929 157.167 732.934 156.078C731.949 154.975 731.31 153.5 731.017 151.651C730.771 150.095 730.836 148.739 731.214 147.582C731.592 146.425 732.208 145.437 733.063 144.616C733.917 143.795 734.944 143.115 736.142 142.576C737.339 142.025 738.639 141.576 740.042 141.229C741.612 140.831 742.871 140.476 743.818 140.164C744.764 139.839 745.432 139.491 745.821 139.117C746.221 138.73 746.376 138.251 746.285 137.679L746.271 137.588C746.123 136.652 745.686 135.979 744.96 135.571C744.235 135.162 743.325 135.044 742.231 135.218C741.052 135.404 740.144 135.81 739.507 136.434C738.871 137.059 738.526 137.836 738.474 138.767L730.202 139.778C730.176 138.037 730.561 136.418 731.359 134.92C732.166 133.409 733.397 132.13 735.051 131.083C736.715 130.021 738.8 129.292 741.304 128.896C743.092 128.612 744.773 128.564 746.348 128.751C747.921 128.926 749.331 129.326 750.577 129.951C751.82 130.564 752.838 131.4 753.629 132.459C754.432 133.516 754.951 134.786 755.186 136.269L758.201 155.31L749.812 156.639L749.194 152.736L748.975 152.771C748.626 153.798 748.115 154.702 747.441 155.482C746.779 156.26 745.951 156.896 744.957 157.389C743.976 157.881 742.835 158.23 741.534 158.436ZM743.363 152.164C744.324 152.012 745.156 151.681 745.861 151.17C746.577 150.658 747.113 150.025 747.467 149.27C747.819 148.504 747.923 147.665 747.779 146.753L747.357 144.09C747.123 144.265 746.832 144.435 746.484 144.602C746.149 144.768 745.776 144.933 745.366 145.097C744.956 145.262 744.532 145.417 744.093 145.561C743.655 145.705 743.234 145.84 742.83 145.966C742.013 146.233 741.328 146.553 740.776 146.927C740.237 147.3 739.845 147.736 739.6 148.236C739.365 148.721 739.296 149.268 739.393 149.876C739.539 150.8 739.979 151.454 740.712 151.836C741.458 152.216 742.342 152.326 743.363 152.164ZM577.149 219.055L578.189 225.62L560.169 228.474L559.129 221.909L577.149 219.055ZM567.323 249.328L562.661 219.891C562.318 217.727 562.441 215.869 563.031 214.317C563.618 212.753 564.579 211.504 565.915 210.57C567.248 209.623 568.863 209 570.76 208.699C572 208.503 573.183 208.415 574.308 208.436C575.443 208.444 576.29 208.478 576.848 208.539L576.46 215.294C576.114 215.236 575.698 215.208 575.212 215.211C574.739 215.211 574.295 215.244 573.882 215.309C572.836 215.475 572.156 215.819 571.84 216.343C571.524 216.867 571.429 217.53 571.556 218.332L576.242 247.915L567.323 249.328ZM592.745 245.788C590.958 246.071 589.324 246.024 587.844 245.648C586.373 245.257 585.141 244.518 584.146 243.429C583.161 242.326 582.522 240.851 582.229 239.003C581.983 237.446 582.048 236.09 582.426 234.933C582.804 233.776 583.42 232.788 584.274 231.967C585.129 231.146 586.156 230.466 587.354 229.927C588.551 229.376 589.851 228.927 591.254 228.58C592.824 228.182 594.082 227.827 595.03 227.515C595.976 227.191 596.643 226.842 597.033 226.468C597.433 226.081 597.588 225.602 597.497 225.03L597.483 224.939C597.334 224.003 596.897 223.33 596.172 222.922C595.447 222.513 594.537 222.395 593.443 222.569C592.263 222.756 591.355 223.161 590.719 223.785C590.082 224.41 589.738 225.187 589.686 226.118L581.414 227.129C581.388 225.388 581.773 223.769 582.571 222.272C583.378 220.76 584.609 219.481 586.263 218.434C587.927 217.372 590.011 216.643 592.516 216.247C594.304 215.964 595.985 215.915 597.56 216.102C599.133 216.277 600.543 216.677 601.788 217.302C603.032 217.915 604.05 218.751 604.84 219.81C605.643 220.867 606.162 222.137 606.397 223.62L609.413 242.662L601.024 243.99L600.405 240.087L600.186 240.122C599.838 241.149 599.327 242.053 598.653 242.833C597.991 243.611 597.163 244.247 596.169 244.74C595.188 245.232 594.046 245.581 592.745 245.788ZM594.575 239.515C595.536 239.363 596.368 239.032 597.072 238.521C597.789 238.009 598.324 237.376 598.679 236.622C599.031 235.855 599.135 235.016 598.99 234.104L598.569 231.441C598.334 231.616 598.044 231.786 597.696 231.954C597.361 232.119 596.988 232.284 596.578 232.448C596.168 232.613 595.744 232.768 595.305 232.912C594.867 233.056 594.446 233.191 594.042 233.318C593.224 233.584 592.54 233.904 591.988 234.278C591.449 234.651 591.057 235.087 590.812 235.587C590.577 236.072 590.508 236.619 590.604 237.227C590.751 238.151 591.191 238.805 591.924 239.187C592.67 239.567 593.554 239.677 594.575 239.515ZM636.242 218.463L628.088 219.979C627.91 219.409 627.597 218.929 627.149 218.539C626.699 218.137 626.15 217.856 625.501 217.697C624.863 217.524 624.149 217.5 623.359 217.625C622.325 217.789 621.476 218.135 620.812 218.664C620.16 219.191 619.896 219.806 620.02 220.509C620.095 221.058 620.389 221.498 620.902 221.828C621.428 222.156 622.3 222.348 623.517 222.405L629.078 222.571C631.959 222.663 634.179 223.221 635.737 224.246C637.308 225.268 638.261 226.8 638.596 228.841C638.888 230.764 638.582 232.526 637.676 234.128C636.783 235.728 635.426 237.077 633.606 238.175C631.784 239.262 629.62 240.003 627.115 240.4C623.115 241.034 619.83 240.713 617.26 239.437C614.7 238.147 613.036 236.142 612.269 233.422L621.043 231.808C621.4 232.799 622.027 233.497 622.927 233.903C623.826 234.309 624.908 234.412 626.173 234.211C627.316 234.03 628.212 233.67 628.862 233.131C629.512 232.592 629.787 231.969 629.688 231.261C629.575 230.631 629.216 230.171 628.609 229.881C628 229.578 627.095 229.41 625.893 229.376L620.858 229.22C617.968 229.154 615.727 228.543 614.136 227.387C612.542 226.218 611.582 224.563 611.255 222.421C610.947 220.55 611.192 218.873 611.991 217.387C612.789 215.89 614.062 214.641 615.81 213.642C617.559 212.642 619.698 211.941 622.227 211.541C626.02 210.94 629.138 211.263 631.579 212.509C634.018 213.743 635.572 215.728 636.242 218.463ZM655.784 206.6L656.824 213.166L639.151 215.965L638.111 209.399L655.784 206.6ZM640.75 202.101L649.669 200.688L653.774 226.605C653.861 227.152 654.016 227.583 654.24 227.896C654.475 228.196 654.774 228.391 655.137 228.483C655.499 228.563 655.917 228.565 656.391 228.49C656.731 228.436 657.085 228.349 657.453 228.229C657.83 228.094 658.112 227.987 658.299 227.908L660.668 234.132C660.262 234.321 659.684 234.568 658.935 234.874C658.198 235.178 657.298 235.439 656.236 235.657C654.16 236.085 652.328 236.126 650.74 235.779C649.162 235.419 647.879 234.675 646.89 233.547C645.914 232.418 645.287 230.903 645.011 229.003L640.75 202.101ZM671.16 216.504L673.691 232.481L664.772 233.894L660.335 205.879L668.816 204.536L669.63 209.679L669.94 209.63C670.289 207.817 671.134 206.306 672.476 205.097C673.815 203.875 675.518 203.1 677.585 202.773C679.555 202.461 681.334 202.634 682.921 203.293C684.519 203.937 685.844 204.986 686.897 206.44C687.96 207.879 688.652 209.652 688.973 211.757L691.801 229.613L682.883 231.025L680.332 214.92C680.098 213.362 679.51 212.209 678.569 211.46C677.64 210.71 676.47 210.447 675.06 210.67C674.123 210.818 673.329 211.156 672.677 211.683C672.036 212.196 671.58 212.86 671.31 213.676C671.053 214.489 671.003 215.432 671.16 216.504ZM710.021 237.496L703.92 198.976L712.748 197.578L713.508 202.374L713.781 202.331C714.011 201.422 714.398 200.52 714.941 199.623C715.497 198.725 716.258 197.944 717.225 197.28C718.202 196.602 719.426 196.146 720.897 195.913C722.843 195.605 724.742 195.828 726.593 196.581C728.457 197.333 730.081 198.69 731.464 200.652C732.846 202.614 733.799 205.243 734.32 208.538C734.823 211.712 734.739 214.448 734.069 216.748C733.411 219.046 732.315 220.865 730.783 222.205C729.262 223.542 727.468 224.375 725.401 224.702C723.991 224.926 722.732 224.888 721.625 224.59C720.519 224.291 719.553 223.821 718.728 223.179C717.916 222.535 717.253 221.811 716.739 221.007L716.557 221.036L718.94 236.083L710.021 237.496ZM714.875 211.599C715.114 213.107 715.523 214.388 716.101 215.444C716.692 216.497 717.419 217.273 718.283 217.771C719.158 218.256 720.136 218.413 721.218 218.241C722.313 218.068 723.195 217.617 723.864 216.888C724.532 216.146 724.972 215.185 725.184 214.005C725.408 212.823 725.401 211.478 725.162 209.97C724.923 208.462 724.515 207.187 723.939 206.144C723.374 205.099 722.661 204.334 721.799 203.847C720.949 203.358 719.97 203.202 718.864 203.377C717.77 203.55 716.887 203.996 716.215 204.713C715.543 205.43 715.088 206.374 714.85 207.546C714.624 208.716 714.633 210.067 714.875 211.599ZM749.182 221.01C747.395 221.293 745.761 221.247 744.28 220.871C742.81 220.48 741.577 219.741 740.582 218.652C739.597 217.549 738.959 216.074 738.666 214.225C738.419 212.669 738.485 211.312 738.863 210.156C739.24 208.999 739.857 208.01 740.711 207.19C741.566 206.369 742.592 205.689 743.791 205.15C744.987 204.599 746.287 204.15 747.691 203.803C749.26 203.405 750.519 203.05 751.467 202.738C752.413 202.413 753.08 202.065 753.47 201.691C753.87 201.304 754.024 200.824 753.934 200.253L753.919 200.162C753.771 199.226 753.334 198.553 752.609 198.145C751.884 197.736 750.974 197.618 749.879 197.792C748.7 197.978 747.792 198.384 747.156 199.008C746.519 199.633 746.175 200.41 746.123 201.341L737.851 202.352C737.825 200.611 738.21 198.992 739.007 197.494C739.815 195.983 741.046 194.704 742.7 193.656C744.364 192.595 746.448 191.866 748.953 191.469C750.74 191.186 752.422 191.138 753.997 191.325C755.57 191.5 756.979 191.9 758.225 192.525C759.469 193.138 760.486 193.974 761.277 195.033C762.08 196.09 762.599 197.36 762.834 198.843L765.85 217.884L757.46 219.213L756.842 215.31L756.623 215.345C756.275 216.372 755.764 217.276 755.089 218.056C754.427 218.833 753.6 219.469 752.606 219.963C751.624 220.455 750.483 220.804 749.182 221.01ZM751.012 214.738C751.972 214.586 752.805 214.254 753.509 213.744C754.226 213.232 754.761 212.598 755.115 211.844C755.468 211.078 755.571 210.239 755.427 209.327L755.005 206.664C754.771 206.838 754.48 207.009 754.133 207.176C753.798 207.342 753.425 207.507 753.015 207.671C752.605 207.836 752.18 207.99 751.742 208.135C751.304 208.279 750.883 208.414 750.479 208.54C749.661 208.807 748.976 209.127 748.425 209.501C747.886 209.873 747.493 210.309 747.249 210.809C747.014 211.295 746.945 211.842 747.041 212.45C747.187 213.374 747.627 214.027 748.361 214.41C749.107 214.79 749.99 214.9 751.012 214.738ZM784.464 215.478C781.509 215.946 778.878 215.74 776.57 214.859C774.274 213.976 772.389 212.542 770.915 210.557C769.44 208.56 768.476 206.132 768.023 203.275C767.569 200.406 767.735 197.799 768.523 195.456C769.322 193.098 770.676 191.145 772.587 189.596C774.51 188.045 776.937 187.037 779.867 186.573C782.457 186.163 784.787 186.274 786.856 186.906C788.938 187.536 790.655 188.622 792.009 190.165C793.373 191.694 794.267 193.603 794.692 195.891L786.357 197.212C785.96 195.804 785.295 194.756 784.364 194.069C783.444 193.379 782.346 193.135 781.07 193.338C780.036 193.501 779.176 193.937 778.491 194.644C777.803 195.338 777.33 196.286 777.071 197.486C776.823 198.672 776.83 200.092 777.092 201.745C777.353 203.399 777.788 204.764 778.394 205.839C779.011 206.901 779.755 207.661 780.625 208.122C781.494 208.57 782.445 208.712 783.479 208.549C784.306 208.418 785.007 208.126 785.584 207.673C786.172 207.218 786.619 206.618 786.925 205.871C787.228 205.113 787.357 204.233 787.31 203.23L795.645 201.91C795.926 204.234 795.668 206.344 794.872 208.24C794.087 210.134 792.811 211.713 791.042 212.978C789.283 214.229 787.09 215.062 784.464 215.478ZM808.828 203.543L807.18 192.904L808.42 192.708L814.711 181.428L824.815 179.828L815.382 196.055L813.029 196.427L808.828 203.543ZM801.949 212.167L796.033 174.814L804.951 173.402L810.867 210.754L801.949 212.167ZM819.348 209.411L810.173 198.936L815.044 191.677L829.653 207.779L819.348 209.411ZM840.416 206.56C838.629 206.843 836.995 206.797 835.514 206.421C834.044 206.03 832.811 205.291 831.816 204.202C830.831 203.099 830.192 201.624 829.9 199.775C829.653 198.219 829.719 196.862 830.097 195.706C830.474 194.549 831.09 193.56 831.945 192.74C832.8 191.919 833.826 191.239 835.025 190.7C836.221 190.149 837.521 189.7 838.925 189.353C840.494 188.955 841.753 188.6 842.701 188.288C843.646 187.963 844.314 187.615 844.704 187.241C845.103 186.854 845.258 186.374 845.168 185.803L845.153 185.712C845.005 184.776 844.568 184.103 843.843 183.694C843.117 183.286 842.208 183.168 841.113 183.342C839.934 183.528 839.026 183.934 838.389 184.558C837.753 185.183 837.409 185.96 837.357 186.891L829.085 187.902C829.058 186.161 829.444 184.542 830.241 183.044C831.049 181.533 832.28 180.254 833.933 179.206C835.598 178.145 837.682 177.416 840.187 177.019C841.974 176.736 843.655 176.688 845.231 176.875C846.804 177.05 848.213 177.45 849.459 178.075C850.703 178.688 851.72 179.524 852.511 180.583C853.314 181.64 853.833 182.91 854.068 184.393L857.084 203.434L848.694 204.763L848.076 200.86L847.857 200.895C847.509 201.922 846.997 202.826 846.323 203.606C845.661 204.383 844.833 205.019 843.84 205.513C842.858 206.005 841.717 206.354 840.416 206.56ZM842.246 200.288C843.206 200.136 844.039 199.804 844.743 199.294C845.46 198.782 845.995 198.148 846.349 197.394C846.701 196.628 846.805 195.789 846.661 194.877L846.239 192.214C846.005 192.388 845.714 192.559 845.367 192.726C845.031 192.892 844.659 193.057 844.249 193.221C843.838 193.386 843.414 193.54 842.976 193.685C842.538 193.829 842.116 193.964 841.713 194.09C840.895 194.357 840.21 194.677 839.659 195.051C839.119 195.423 838.727 195.859 838.482 196.359C838.248 196.845 838.179 197.392 838.275 198C838.421 198.924 838.861 199.577 839.595 199.96C840.341 200.34 841.224 200.45 842.246 200.288ZM877.352 211.591C874.689 212.013 872.351 212.003 870.337 211.562C868.322 211.121 866.672 210.341 865.386 209.224C864.099 208.106 863.218 206.75 862.741 205.156L871.11 203.344C871.359 203.891 871.73 204.343 872.223 204.701C872.728 205.057 873.345 205.296 874.075 205.417C874.817 205.537 875.662 205.521 876.61 205.371C878.106 205.134 879.282 204.574 880.139 203.69C881.01 202.817 881.304 201.48 881.019 199.681L880.239 194.756L879.929 194.806C879.713 195.725 879.3 196.582 878.69 197.376C878.081 198.171 877.272 198.847 876.264 199.406C875.267 199.962 874.082 200.349 872.708 200.567C870.666 200.891 868.718 200.713 866.866 200.034C865.023 199.341 863.433 198.073 862.093 196.228C860.765 194.37 859.849 191.854 859.346 188.68C858.828 185.409 858.924 182.633 859.635 180.352C860.344 178.058 861.462 176.267 862.991 174.978C864.531 173.687 866.28 172.887 868.238 172.577C869.709 172.344 871.008 172.4 872.134 172.745C873.271 173.076 874.243 173.582 875.049 174.265C875.855 174.947 876.502 175.686 876.989 176.482L877.244 176.441L876.485 171.644L885.367 170.238L889.821 198.361C890.197 200.732 889.918 202.827 888.984 204.645C888.051 206.463 886.58 207.961 884.573 209.139C882.568 210.329 880.161 211.146 877.352 211.591ZM874.781 193.583C875.863 193.412 876.741 192.98 877.417 192.287C878.093 191.594 878.552 190.68 878.796 189.544C879.04 188.409 879.044 187.093 878.807 185.598C878.566 184.078 878.152 182.804 877.566 181.775C876.989 180.732 876.265 179.974 875.392 179.502C874.532 179.027 873.56 178.876 872.478 179.047C871.372 179.222 870.484 179.674 869.814 180.404C869.144 181.133 868.696 182.083 868.47 183.253C868.255 184.409 868.265 185.734 868.502 187.23C868.739 188.725 869.143 189.976 869.713 190.983C870.284 191.989 870.992 192.719 871.836 193.171C872.693 193.621 873.674 193.758 874.781 193.583ZM908.669 195.806C905.738 196.27 903.118 196.093 900.807 195.275C898.507 194.443 896.614 193.041 895.131 191.07C893.657 189.085 892.684 186.603 892.212 183.624C891.754 180.73 891.925 178.111 892.725 175.765C893.523 173.408 894.867 171.463 896.755 169.929C898.642 168.384 900.996 167.388 903.817 166.941C905.811 166.626 907.684 166.647 909.435 167.005C911.187 167.363 912.761 168.055 914.158 169.08C915.554 170.105 916.728 171.459 917.68 173.14C918.63 174.81 919.287 176.793 919.651 179.091L920.003 181.316L895.655 185.173L894.834 179.993L910.884 177.451C910.722 176.505 910.363 175.695 909.808 175.023C909.253 174.35 908.559 173.868 907.728 173.576C906.907 173.27 906.004 173.195 905.019 173.351C904.022 173.509 903.164 173.875 902.444 174.45C901.723 175.013 901.193 175.714 900.852 176.553C900.509 177.38 900.402 178.276 900.53 179.241L901.364 184.512C901.546 185.655 901.929 186.622 902.516 187.414C903.101 188.194 903.844 188.755 904.746 189.099C905.648 189.442 906.67 189.523 907.813 189.342C908.604 189.217 909.304 188.994 909.913 188.673C910.523 188.352 911.025 187.942 911.42 187.443C911.815 186.945 912.078 186.367 912.211 185.71L920.438 184.65C920.388 186.54 919.894 188.258 918.954 189.802C918.025 191.333 916.69 192.623 914.949 193.671C913.206 194.707 911.113 195.419 908.669 195.806Z" fill="black"/>
<path d="M446.803 210.831L453.032 250.159L431.079 253.636L420.157 184.678L441.033 181.371L443.038 194.032L443.801 193.911C444.659 189.449 446.739 185.729 450.042 182.752C453.339 179.744 457.532 177.838 462.62 177.032C467.469 176.264 471.847 176.69 475.754 178.311C479.687 179.897 482.95 182.479 485.541 186.057C488.158 189.6 489.862 193.963 490.652 199.146L497.613 243.098L475.659 246.575L469.381 206.933C468.804 203.097 467.357 200.258 465.04 198.416C462.754 196.57 459.874 195.921 456.402 196.471C454.098 196.836 452.143 197.667 450.539 198.964C448.959 200.227 447.837 201.862 447.173 203.869C446.54 205.872 446.416 208.193 446.803 210.831Z" fill="white"/>
<path d="M206.829 218.465L209.389 234.628L165.033 241.653L162.473 225.491L206.829 218.465ZM182.643 292.985L171.166 220.524C170.323 215.197 170.626 210.623 172.077 206.804C173.523 202.954 175.889 199.88 179.176 197.58C182.458 195.25 186.433 193.715 191.102 192.975C194.155 192.492 197.066 192.276 199.836 192.328C202.631 192.346 204.715 192.43 206.089 192.581L205.132 209.208C204.282 209.066 203.258 208.998 202.063 209.004C200.897 209.004 199.805 209.085 198.788 209.246C196.214 209.654 194.538 210.502 193.76 211.791C192.983 213.08 192.75 214.712 193.063 216.688L204.597 289.507L182.643 292.985Z" fill="white"/>
<path d="M249.475 283.596C245.076 284.293 241.054 284.178 237.409 283.252C233.79 282.291 230.756 280.471 228.307 277.791C225.882 275.076 224.31 271.444 223.589 266.894C222.983 263.063 223.144 259.724 224.074 256.877C225.003 254.03 226.52 251.596 228.624 249.575C230.728 247.555 233.255 245.881 236.205 244.555C239.15 243.199 242.35 242.094 245.804 241.24C249.668 240.259 252.766 239.385 255.099 238.617C257.427 237.819 259.071 236.96 260.03 236.041C261.014 235.088 261.395 233.907 261.172 232.501L261.136 232.276C260.771 229.972 259.696 228.316 257.911 227.311C256.125 226.305 253.886 226.015 251.192 226.442C248.289 226.902 246.054 227.9 244.487 229.437C242.92 230.973 242.073 232.887 241.945 235.178L221.583 237.666C221.518 233.381 222.467 229.396 224.43 225.71C226.418 221.99 229.447 218.841 233.518 216.263C237.615 213.651 242.746 211.856 248.911 210.88C253.311 210.183 257.449 210.064 261.327 210.524C265.199 210.954 268.669 211.938 271.735 213.478C274.797 214.987 277.301 217.045 279.248 219.651C281.225 222.253 282.502 225.379 283.08 229.031L290.504 275.901L269.852 279.172L268.331 269.564L267.792 269.65C266.935 272.179 265.676 274.403 264.017 276.323C262.387 278.237 260.349 279.803 257.903 281.019C255.487 282.23 252.678 283.089 249.475 283.596ZM253.979 268.156C256.344 267.781 258.393 266.966 260.127 265.709C261.89 264.448 263.208 262.89 264.08 261.033C264.947 259.147 265.203 257.082 264.848 254.837L263.809 248.282C263.233 248.711 262.517 249.131 261.662 249.543C260.837 249.95 259.919 250.356 258.91 250.761C257.9 251.167 256.856 251.547 255.777 251.902C254.698 252.257 253.661 252.59 252.667 252.9C250.654 253.557 248.969 254.345 247.612 255.266C246.284 256.182 245.319 257.255 244.716 258.486C244.138 259.682 243.968 261.028 244.205 262.525C244.565 264.799 245.648 266.407 247.454 267.348C249.29 268.285 251.465 268.554 253.979 268.156Z" fill="white"/>
<path d="M359.408 215.883L339.335 219.615C338.898 218.211 338.128 217.029 337.025 216.069C335.917 215.078 334.565 214.387 332.969 213.996C331.398 213.57 329.64 213.511 327.695 213.819C325.151 214.222 323.061 215.074 321.427 216.376C319.822 217.674 319.172 219.188 319.477 220.919C319.66 222.271 320.384 223.353 321.648 224.165C322.941 224.972 325.087 225.446 328.085 225.584L341.772 225.994C348.865 226.22 354.329 227.595 358.165 230.117C362.03 232.634 364.376 236.404 365.203 241.428C365.922 246.161 365.167 250.499 362.938 254.442C360.739 258.38 357.399 261.701 352.918 264.405C348.433 267.079 343.108 268.904 336.942 269.881C327.095 271.44 319.008 270.65 312.682 267.51C306.38 264.336 302.285 259.4 300.396 252.704L321.995 248.731C322.872 251.169 324.418 252.888 326.631 253.888C328.845 254.887 331.509 255.14 334.621 254.647C337.435 254.201 339.641 253.315 341.241 251.988C342.841 250.661 343.519 249.127 343.274 247.386C342.997 245.834 342.112 244.701 340.618 243.987C339.12 243.242 336.891 242.828 333.933 242.745L321.538 242.361C314.425 242.199 308.91 240.694 304.992 237.848C301.07 234.972 298.706 230.897 297.902 225.625C297.142 221.02 297.746 216.89 299.713 213.234C301.676 209.549 304.809 206.475 309.114 204.014C313.418 201.553 318.683 199.829 324.908 198.843C334.247 197.364 341.92 198.158 347.928 201.226C353.932 204.263 357.758 209.149 359.408 215.883Z" fill="white"/>
<path d="M408.774 186.481L411.334 202.643L367.83 209.533L365.27 193.371L408.774 186.481ZM371.767 175.406L393.721 171.929L403.825 235.725C404.039 237.071 404.421 238.131 404.973 238.902C405.55 239.639 406.286 240.121 407.181 240.347C408.071 240.544 409.1 240.55 410.267 240.365C411.105 240.232 411.976 240.017 412.88 239.721C413.809 239.39 414.504 239.126 414.964 238.931L420.796 254.252C419.796 254.718 418.374 255.326 416.529 256.079C414.715 256.826 412.5 257.468 409.885 258.005C404.775 259.06 400.266 259.161 396.357 258.307C392.473 257.419 389.315 255.588 386.881 252.813C384.477 250.033 382.935 246.305 382.256 241.626L371.767 175.406Z" fill="white"/>
<path d="M523.371 237.643C520.6 238.129 518.055 237.57 515.734 235.968C513.439 234.361 512.059 232.171 511.594 229.397C511.086 226.683 511.636 224.194 513.245 221.929C514.874 219.634 517.074 218.244 519.844 217.758C522.46 217.299 524.942 217.869 527.288 219.466C529.655 221.034 531.093 223.175 531.601 225.888C531.903 227.739 531.713 229.504 531.032 231.183C530.377 232.858 529.373 234.277 528.018 235.44C526.69 236.598 525.141 237.332 523.371 237.643ZM516.181 197.104C513.411 197.589 510.868 197.044 508.551 195.467C506.256 193.86 504.874 191.657 504.404 188.858C503.896 186.144 504.447 183.655 506.055 181.39C507.684 179.095 509.884 177.704 512.654 177.219C515.271 176.76 517.752 177.329 520.098 178.927C522.466 180.495 523.903 182.636 524.411 185.349C524.713 187.2 524.523 188.965 523.843 190.644C523.187 192.319 522.183 193.738 520.829 194.901C519.5 196.059 517.951 196.793 516.181 197.104Z" fill="white"/>
<path d="M94.3927 259.46L96.6964 274.005L60.1211 279.798L57.8173 265.253L94.3927 259.46ZM145.639 251.343L147.942 265.888L111.367 271.681L109.063 257.136L145.639 251.343Z" fill="white"/>
</svg>
